<?xml version="1.0" encoding="utf-8"?>
<!-- Generator: Adobe Illustrator 19.1.0, SVG Export Plug-In . SVG Version: 6.00 Build 0)  -->
<svg version="1.1" xmlns="http://www.w3.org/2000/svg" xmlns:xlink="http://www.w3.org/1999/xlink" x="0px" y="0px"
	 viewBox="0 0 100 60" style="enable-background:new 0 0 100 60;" xml:space="preserve">
<style type="text/css">
	.st0{fill:#F5AA38;}
	.st1{fill:#FFFFFF;}
	.st2{display:none;}
	.st3{display:inline;fill:#666666;}
	.st4{display:inline;}
</style>
<g id="图层_1">
	<g>
		<path class="st0" d="M24.9,30.9l1.3-1.1l4-8.3l-4.3-5.3l3.3-8.6l0,0c-0.6-0.1-1.1-0.3-1.5-0.6C17.1,13.4,9.6,24.5,8,37.5h1.1
			c2.9-4.1,7.6-6.7,13-6.7C23.1,30.8,23.9,30.8,24.9,30.9"/>
		<path class="st0" d="M55.6,29.6l3.4-8.2l-6.5-8.3L56.8,3l0,0c-0.7-0.4-1.3-1.2-1.4-2.1c-1.8-0.2-3.7-0.4-5.5-0.4
			c-1.5,0-3,0.1-4.4,0.2c-0.2,1.1-1.1,2-2.3,2.2l-3.9,10.5l4.7,7.2l-3.5,8.9l1.5,1.3l12,0L55.6,29.6z"/>
		<path class="st0" d="M91.3,35C89.2,23.5,80,13.1,74.5,8.8c-0.5,0.4-0.9,0.5-1.6,0.5c-0.3,0-0.7-0.1-1-0.2l0,0l-2.5,6.5l4.4,6.1
			l-2.5,7.1c6.6,0.3,12.9,4.1,16.4,8.7c2.8,3.7,4.3,9.9,4.3,9.9S92.8,43.8,91.3,35"/>
		<path class="st0" d="M37.6,13.6l4.2-10.7c-0.6-0.2-1.2-0.6-1.5-1.2c-2.8,0.6-5.5,1.6-8,2.7c0,0.1,0,0.2,0,0.3
			c0,1.2-0.7,2.2-1.7,2.6l0,0l-3.1,8.8l4.2,5l-5.2,11.4h-3.8l-1.4,5H29h6.1c0,0,0,0,0,0h0.4l6.8-16.7L37.6,13.6z"/>
		<path class="st0" d="M21.8,33.7l0.3-1.2h-1.5c-1.6,0-3,0.4-4.2,1.2H21.8z"/>
		<path class="st0" d="M13.9,36c-0.3,0.4-0.6,0.9-0.8,1.4h0.1h7.5l0.4-1.4H13.9z"/>
		<path class="st0" d="M21.2,35.5l0.4-1.4h-6c-0.5,0.4-1,0.9-1.4,1.4H21.2z"/>
		<path class="st0" d="M67.8,15.7l3-7.5l0,0c-0.4-0.5-0.6-1.1-0.6-1.7c0-0.3,0-0.3,0.1-0.6c-3.1-1.6-6.2-3.1-9.5-4
			c-0.5,0.9-1.4,1.4-2.5,1.4c0,0-0.1,0-0.1,0l-4,9.8l6.5,8.1l-4.2,11.2c0,0-2.1,0-3.8,0l-1.4,5h7.9h6.7l3.5-8.7h0l2.7-7L67.8,15.7z"
			/>
		<path class="st0" d="M51.7,33.8l0.4-1.3c-0.8,0-1.4,0-1.5,0c-1.7,0-3.2,0.5-4.4,1.3H51.7z"/>
		<path class="st0" d="M51.2,35.7l0.4-1.4h-6.1c-0.5,0.4-0.9,0.9-1.3,1.4H51.2z"/>
		<path class="st0" d="M43.9,36.2c-0.3,0.5-0.5,0.7-0.7,1.3h7.5l0.4-1.3L43.9,36.2z"/>
		<path class="st1" d="M19.4,26.3c0,0.5-0.4,0.9-0.9,0.9c-0.5,0-0.9-0.4-0.9-0.9c0-0.5,0.4-0.9,0.9-0.9
			C19.1,25.4,19.4,25.8,19.4,26.3"/>
		<path class="st0" d="M8,45.9v-1.1h11.5v1.1h-1v1.8h1.2v0.9h-1.2v2.7H14v-0.9h2.6v-1.8h-3.8l-2.3,2.7H7.9l2.4-2.7H8.8l-0.7-2.4h1.8
			l0.6,1.5h6.3v-1.8H8z M19.6,42.2l-2-0.5v-0.4H9.9v0.5L8,42.2v-1.8h4.9l0.2-0.6h2l-0.2,0.6h4.7V42.2z M8,42.6l5.3,0v1.6l-5.3,0
			V42.6z M14.4,42.5l5.3,0v1.6l-5.3,0V42.5z"/>
		<polygon class="st0" points="21.5,41.8 23.4,41.3 23.4,50.3 26.3,50.3 26.3,40.3 28.2,39.8 28.2,50.3 31.2,50.3 31.2,41.8 
			33.1,41.3 33.1,51.2 21.5,51.2 		"/>
		<path class="st0" d="M35.1,49.1v-9h11.5v9h-4.9v2.1h-2v-2.1H35.1z M37,44.1h2.7v-3.1h-2.4L37,41.3V44.1z M39.8,45.1h-2.5L37,45.3
			v2.8h2.7V45.1z M44.6,41.1h-2.6l-0.3,0.2v2.8h2.9V41.1z M41.7,48.2h2.9v-3.1H42l-0.2,0.2V48.2z"/>
		<path class="st0" d="M48.3,46.6H55v-3.7l1.8-0.5v4.2h3.1v0.9h-3.1l3.1,2.1v1.7l-4-2.5l-7.6,2.5l0.4-2.1l6.3-1.7h-6.7V46.6z
			 M58,41.6h-7.7v1.1l-2,0.6v-2.6h4.8l-0.4-0.8h2.2l0.4,0.8h4.6v2.6l-2-0.6V41.6z M52.4,44.8v1.6l-2.6-1.1v-1.8L52.4,44.8z
			 M54.6,45.4L51.9,44v-1.7l2.7,1.3V45.4z"/>
		<path class="st0" d="M61.8,48.7l0-0.9l2.5,0v0.9L61.8,48.7z M64.4,50.4l0.3-4.2h-3.2l0-4.3h1.7l-0.5,3.4H64l0.5-4.3h-3V40h4.9
			l-0.5,5.2h0.7l-0.3,6h-5v-1.3l0.9,0.4L64.4,50.4z M70.4,41.6l-4.5,2.2V42l4.5-2.3l4.4,2.1v1.9L70.4,41.6z M74.1,45.2l-0.8,5.1h0.8
			v0.9h-7.3v-0.9h4.6l0.9-5.1H74.1z M66.9,45.2h1.7l0.9,5.3h-1.6L66.9,45.2z M67.5,43.2h6v0.9h-6V43.2z M69.3,45.2h1.7l0.2,5.3h-1.7
			L69.3,45.2z"/>
		<path class="st0" d="M80.3,48.1v-0.6l2-0.5v1h4.5V49h-4.5v1.3h5v0.9H75.3v-0.9h5V49h-4.4v-0.9H80.3z M77.4,41.5v0.7l-2,0.3v-1.9
			h4.9l-0.3-0.8h2.2l0.4,0.8h4.6v1.9l-2-0.4v-0.6H77.4z M75.7,43.9V43h11.2v0.9h-8.2l-0.5,1.7h6.2l-0.6-1.1h2.2l1.2,2H75.8l0.8-2.6
			H75.7z"/>
		<path class="st0" d="M9.1,57.1v2.4H7.8v-5.2l0.5-0.5h4v3.4H9.1z M9.1,56.3h2.4v-2h-2l-0.5,0.4V56.3z"/>
		<path class="st0" d="M19.5,59.5h-1.6l0.3-0.5l-0.4-1.6h-2l-0.3,1.6l0.4,0.5h-1.7l1-4.9l1-0.8h2.2L19.5,59.5z M17.7,56.8l-0.5-2.1
			h-0.9l-0.5,2.1H17.7z"/>
		<polygon class="st0" points="26,59.5 24.9,59.5 22,55.1 22,59.5 20.8,59.5 20.8,53.7 22,53.7 24.7,57.7 24.7,53.7 26,53.7 		"/>
		<polygon class="st0" points="32.5,59.5 27.5,59.5 27.5,54.2 27.8,53.7 32.4,53.7 32.4,54.4 29,54.4 28.7,54.7 28.7,59 31.2,59 
			31.2,56.8 29.6,56.8 29.8,56.3 32.5,56.3 		"/>
		<path class="st0" d="M39.1,59.5H34v-5.2l0.5-0.5h4.6V59.5z M37.9,58.8v-4.4h-2.3l-0.4,0.3v4H37.9z"/>
		<polygon class="st0" points="45.5,59.5 40.6,59.5 40.6,53.7 41.9,53.7 41.9,59 45.5,59 		"/>
		<rect x="47.7" y="53.7" class="st0" width="1.3" height="5.7"/>
		<polygon class="st0" points="56.3,59.5 55.4,59.5 52.3,55.2 52.3,59.5 51.1,59.5 51.1,53.7 52.3,53.7 55.1,57.7 55.1,53.7 
			56.3,53.7 		"/>
		<polygon class="st0" points="66.9,59.5 62,59.5 62,53.7 63.3,53.7 63.3,59 66.9,59 		"/>
		<path class="st0" d="M80.1,59.5h-5.2v-5.1l0.6-0.6h4.1v2.5h0.5V59.5z M76.1,54.7v1.6h2.3v-2h-1.9L76.1,54.7z M76.1,57.1V59h2.8
			v-2.2h-2.4L76.1,57.1z"/>
		<polygon class="st0" points="86.6,59.5 81.6,59.5 81.6,58.7 81.9,59 85.6,59 85.6,56.8 81.6,56.8 81.6,54.1 82,53.7 86.6,53.7 
			86.6,54.3 83.2,54.3 82.9,54.5 82.9,56.3 86.6,56.3 		"/>
		<path class="st0" d="M73.7,59.5h-1.6l0.3-0.5L72,57.3h-2l-0.3,1.6l0.4,0.5h-1.7l1-4.9l1-0.8h2.2L73.7,59.5z M71.9,56.8l-0.5-2.1
			h-0.9l-0.5,2.1H71.9z"/>
	</g>
</g>
<g id="图层_2" class="st2">
</g>
</svg>
